<?xml version="1.0" encoding="UTF-8" standalone="no"?>
<svg width="1326px" height="786px" viewBox="0 0 1326 786" version="1.1" xmlns="http://www.w3.org/2000/svg" xmlns:xlink="http://www.w3.org/1999/xlink">
    <!-- Generator: Sketch 3.6.1 (26313) - http://www.bohemiancoding.com/sketch -->
    <title>IBM Logos</title>
    <desc>Created with Sketch.</desc>
    <defs></defs>
    <g id="Page-1" stroke="none" stroke-width="1" fill="none" fill-rule="evenodd">
        <g id="IBM-Logos">
            <g id="1401-Logo" transform="translate(32.000000, 490.000000)">
                <rect id="Blue-Box" fill="#3142AB" x="0" y="0" width="431" height="184"></rect>
                <rect id="Black-Box" fill="#000000" x="431" y="0" width="829" height="184"></rect>
                <rect id="White-Box" stroke="#000000" fill="#FFFFFF" x="0" y="184" width="1260" height="81"></rect>
                <path d="M1084.61328,204.796875 L1084.61328,228.410156 C1084.61328,231.778663 1085.16341,234.241529 1086.26367,235.798828 C1087.90561,238.050141 1090.21613,239.175781 1093.19531,239.175781 C1096.19142,239.175781 1098.51041,238.050141 1100.15234,235.798828 C1101.25261,234.29231 1101.80273,231.829444 1101.80273,228.410156 L1101.80273,204.796875 L1107.71875,204.796875 L1107.71875,230.035156 C1107.71875,234.165385 1106.4323,237.567695 1103.85938,240.242188 C1100.96483,243.221369 1097.41018,244.710938 1093.19531,244.710938 C1088.98045,244.710938 1085.43426,243.221369 1082.55664,240.242188 C1079.98371,237.567695 1078.69727,234.165385 1078.69727,230.035156 L1078.69727,204.796875 L1084.61328,204.796875 Z M1118.91328,244 L1118.91328,202.130859 L1147.50312,232.041016 L1147.50312,204.796875 L1153.41914,204.796875 L1153.41914,246.386719 L1124.8293,216.552734 L1124.8293,244 L1118.91328,244 Z M1170.52969,204.796875 L1170.52969,244 L1164.61367,244 L1164.61367,204.796875 L1170.52969,204.796875 Z M1192.56602,210.357422 L1192.56602,244 L1186.65,244 L1186.65,210.357422 L1177.63633,210.357422 L1177.63633,204.796875 L1201.5543,204.796875 L1201.5543,210.357422 L1192.56602,210.357422 Z" id="UNIT" fill="#000000"></path>
                <path d="M713.613281,228.080078 L713.613281,244 L707.697266,244 L707.697266,204.796875 L714.400391,204.796875 C717.684261,204.796875 720.164054,205.025388 721.839844,205.482422 C723.532561,205.939455 725.022129,206.802728 726.308594,208.072266 C728.559907,210.272797 729.685547,213.048811 729.685547,216.400391 C729.685547,219.98895 728.483736,222.832672 726.080078,224.931641 C723.67642,227.030609 720.434916,228.080078 716.355469,228.080078 L713.613281,228.080078 Z M713.613281,222.595703 L715.822266,222.595703 C721.255887,222.595703 723.972656,220.505229 723.972656,216.324219 C723.972656,212.278626 721.171252,210.255859 715.568359,210.255859 L713.613281,210.255859 L713.613281,222.595703 Z M750.258594,227.292969 L762.395313,244 L755.158984,244 L743.961719,227.953125 L742.895313,227.953125 L742.895313,244 L736.979297,244 L736.979297,204.796875 L743.910938,204.796875 C749.090651,204.796875 752.831499,205.770173 755.133594,207.716797 C757.672669,209.883474 758.942188,212.744123 758.942188,216.298828 C758.942188,219.074884 758.146623,221.461579 756.555469,223.458984 C754.964315,225.45639 752.865378,226.734372 750.258594,227.292969 L750.258594,227.292969 Z M742.895313,222.798828 L744.774219,222.798828 C750.377111,222.798828 753.178516,220.657573 753.178516,216.375 C753.178516,212.363261 750.453283,210.357422 745.002734,210.357422 L742.895313,210.357422 L742.895313,222.798828 Z M766.642188,224.220703 C766.642188,218.702446 768.664954,213.96291 772.710547,210.001953 C776.739213,206.040996 781.58031,204.060547 787.233984,204.060547 C792.81995,204.060547 797.610267,206.057923 801.605078,210.052734 C805.616817,214.047546 807.622656,218.846326 807.622656,224.449219 C807.622656,230.085966 805.608354,234.867819 801.579688,238.794922 C797.534094,242.738952 792.65068,244.710938 786.929297,244.710938 C781.868074,244.710938 777.323197,242.959002 773.294531,239.455078 C768.859613,235.578757 766.642188,230.500682 766.642188,224.220703 L766.642188,224.220703 Z M772.608984,224.296875 C772.608984,228.63023 774.064699,232.193345 776.976172,234.986328 C779.870718,237.779311 783.213783,239.175781 787.005469,239.175781 C791.118771,239.175781 794.588788,237.75392 797.415625,234.910156 C800.242462,232.032538 801.655859,228.528666 801.655859,224.398438 C801.655859,220.217427 800.259389,216.713556 797.466406,213.886719 C794.690351,211.042955 791.254187,209.621094 787.157813,209.621094 C783.078365,209.621094 779.633738,211.042955 776.823828,213.886719 C774.013918,216.696629 772.608984,220.166646 772.608984,224.296875 L772.608984,224.296875 Z M845.232813,206.904297 L845.232813,213.912109 C841.813525,211.051418 838.2758,209.621094 834.619531,209.621094 C830.590865,209.621094 827.197019,211.068345 824.437891,213.962891 C821.661835,216.840509 820.273828,220.361307 820.273828,224.525391 C820.273828,228.638692 821.661835,232.10871 824.437891,234.935547 C827.213946,237.762384 830.616256,239.175781 834.644922,239.175781 C836.726964,239.175781 838.495826,238.837243 839.951563,238.160156 C840.764067,237.821613 841.606181,237.364586 842.47793,236.789062 C843.349679,236.213539 844.267964,235.519535 845.232813,234.707031 L845.232813,241.841797 C841.847379,243.754567 838.292727,244.710938 834.56875,244.710938 C828.965858,244.710938 824.184004,242.755879 820.223047,238.845703 C816.279017,234.901673 814.307031,230.14521 814.307031,224.576172 C814.307031,219.582657 815.957406,215.130879 819.258203,211.220703 C823.320724,206.430315 828.57653,204.035156 835.025781,204.035156 C838.546632,204.035156 841.948942,204.991527 845.232813,206.904297 L845.232813,206.904297 Z M875.530469,210.357422 L859.813672,210.357422 L859.813672,219.777344 L875.073438,219.777344 L875.073438,225.337891 L859.813672,225.337891 L859.813672,238.439453 L875.530469,238.439453 L875.530469,244 L853.897656,244 L853.897656,204.796875 L875.530469,204.796875 L875.530469,210.357422 Z M906.666016,210.636719 L901.867188,213.480469 C900.970048,211.923169 900.115239,210.907554 899.302735,210.433594 C898.456376,209.891924 897.36459,209.621094 896.027344,209.621094 C894.385409,209.621094 893.022792,210.086584 891.939453,211.017578 C890.856115,211.931645 890.314453,213.082675 890.314453,214.470703 C890.314453,216.383473 891.736314,217.923822 894.580078,219.091797 L898.490235,220.691406 C901.672542,221.977871 903.999993,223.547842 905.472656,225.401367 C906.94532,227.254892 907.681641,229.52733 907.681641,232.21875 C907.681641,235.824237 906.47983,238.803374 904.076172,241.15625 C901.655587,243.526054 898.65106,244.710938 895.0625,244.710938 C891.660139,244.710938 888.850272,243.703786 886.632813,241.689453 C884.449208,239.67512 883.086591,236.839862 882.544922,233.183594 L888.53711,231.863281 C888.807944,234.165376 889.281898,235.756506 889.958985,236.636719 C891.177741,238.329436 892.955067,239.175781 895.291016,239.175781 C897.136077,239.175781 898.667963,238.557949 899.886719,237.322266 C901.105475,236.086582 901.714844,234.520843 901.714844,232.625 C901.714844,231.863277 901.609051,231.165042 901.397461,230.530273 C901.185872,229.895505 900.855797,229.311526 900.407227,228.77832 C899.958657,228.245115 899.37891,227.745771 898.667969,227.280273 C897.957028,226.814776 897.110682,226.370445 896.128906,225.947266 L892.345703,224.373047 C886.979791,222.104806 884.296875,218.787131 884.296875,214.419922 C884.296875,211.474595 885.422515,209.011729 887.673828,207.03125 C889.925142,205.033844 892.726546,204.035156 896.078125,204.035156 C900.597679,204.035156 904.126941,206.235655 906.666016,210.636719 L906.666016,210.636719 Z M938.182422,210.636719 L933.383594,213.480469 C932.486454,211.923169 931.631645,210.907554 930.819141,210.433594 C929.972783,209.891924 928.880997,209.621094 927.54375,209.621094 C925.901815,209.621094 924.539198,210.086584 923.45586,211.017578 C922.372521,211.931645 921.83086,213.082675 921.83086,214.470703 C921.83086,216.383473 923.25272,217.923822 926.096485,219.091797 L930.006641,220.691406 C933.188948,221.977871 935.516399,223.547842 936.989063,225.401367 C938.461726,227.254892 939.198047,229.52733 939.198047,232.21875 C939.198047,235.824237 937.996236,238.803374 935.592578,241.15625 C933.171993,243.526054 930.167466,244.710938 926.578907,244.710938 C923.176546,244.710938 920.366678,243.703786 918.149219,241.689453 C915.965614,239.67512 914.602998,236.839862 914.061328,233.183594 L920.053516,231.863281 C920.324351,234.165376 920.798304,235.756506 921.475391,236.636719 C922.694147,238.329436 924.471473,239.175781 926.807422,239.175781 C928.652483,239.175781 930.184369,238.557949 931.403125,237.322266 C932.621881,236.086582 933.23125,234.520843 933.23125,232.625 C933.23125,231.863277 933.125457,231.165042 932.913867,230.530273 C932.702278,229.895505 932.372203,229.311526 931.923633,228.77832 C931.475063,228.245115 930.895316,227.745771 930.184375,227.280273 C929.473434,226.814776 928.627089,226.370445 927.645313,225.947266 L923.86211,224.373047 C918.496197,222.104806 915.813282,218.787131 915.813282,214.419922 C915.813282,211.474595 916.938921,209.011729 919.190235,207.03125 C921.441548,205.033844 924.242952,204.035156 927.594532,204.035156 C932.114085,204.035156 935.643347,206.235655 938.182422,210.636719 L938.182422,210.636719 Z M953.448828,204.796875 L953.448828,244 L947.532813,244 L947.532813,204.796875 L953.448828,204.796875 Z M964.06875,244 L964.06875,202.130859 L992.658594,232.041016 L992.658594,204.796875 L998.57461,204.796875 L998.57461,246.386719 L969.984766,216.552734 L969.984766,244 L964.06875,244 Z M1029.3293,223.585938 L1045.52852,223.585938 L1045.52852,224.880859 C1045.52852,227.826187 1045.18151,230.432931 1044.4875,232.701172 C1043.81041,234.800141 1042.66785,236.763663 1041.05977,238.591797 C1037.42042,242.688172 1032.79091,244.736328 1027.17109,244.736328 C1021.68669,244.736328 1016.98947,242.755879 1013.0793,238.794922 C1009.16912,234.817037 1007.21406,230.043648 1007.21406,224.474609 C1007.21406,218.787081 1009.20298,213.96291 1013.18086,210.001953 C1017.15874,206.024069 1021.99984,204.035156 1027.7043,204.035156 C1030.76811,204.035156 1033.62876,204.661452 1036.28633,205.914062 C1038.8254,207.166673 1041.32212,209.197903 1043.77656,212.007812 L1039.56172,216.044922 C1036.34556,211.762348 1032.42698,209.621094 1027.80586,209.621094 C1023.6587,209.621094 1020.18022,211.051418 1017.37031,213.912109 C1014.5604,216.722019 1013.15547,220.242817 1013.15547,224.474609 C1013.15547,228.841819 1014.72121,232.438788 1017.85273,235.265625 C1020.78113,237.889336 1023.95493,239.201172 1027.37422,239.201172 C1030.28569,239.201172 1032.9009,238.219411 1035.21992,236.255859 C1037.53894,234.275381 1038.83385,231.905613 1039.10469,229.146484 L1029.3293,229.146484 L1029.3293,223.585938 Z" id="PROCESSING" fill="#000000"></path>
                <g id="Number" transform="translate(755.000000, 27.000000)" fill="#FFFFFF">
                    <path d="M399.088968,34.3538163 C399.088968,33.2444858 398.193871,32.3451957 397.082193,32.3451957 L382.006775,32.3451957 C380.898464,32.3451957 380,31.4463412 380,30.3462685 L380,1.99892723 C380,0.894950205 380.889763,0 382.004928,0 L425.717492,0 C426.824783,0 427.72242,0.888680947 427.72242,1.99441193 L427.72242,27.6995382 C427.72242,28.8010215 427.72242,30.5888027 427.72242,31.6928493 L427.72242,106.171919 C427.72242,107.275881 428.617517,108.170819 429.729195,108.170819 L444.804613,108.170819 C445.912924,108.170819 446.811388,109.07173 446.811388,110.160986 L446.811388,137.995598 C446.811388,139.094737 445.917443,139.985765 444.811856,139.985765 L381.999532,139.985765 C380.895221,139.985765 380,139.084854 380,137.995598 L380,110.160986 C380,109.061847 380.895097,108.170819 382.006775,108.170819 L397.082193,108.170819 C398.190504,108.170819 399.088968,107.266438 399.088968,106.162198 L399.088968,34.3538163 Z M422.950178,7.29574754 C422.950178,6.19490241 422.056689,5.3024911 420.952656,5.3024911 L387.300013,5.3024911 C386.196812,5.3024911 385.302491,6.19526395 385.302491,7.30879011 L385.302491,25.0364056 C385.302491,26.144454 386.197617,27.0427046 387.306232,27.0427046 L401.857469,27.0427046 C402.964105,27.0427046 403.86121,27.9405317 403.86121,29.0519358 L403.86121,111.464078 C403.86121,112.573746 402.967175,113.47331 401.862965,113.47331 L387.830985,113.47331 C386.727385,113.47331 385.83274,114.371128 385.83274,115.468692 L385.83274,132.687892 C385.83274,133.789911 386.721287,134.683274 387.827991,134.683274 L438.983397,134.683274 C440.085343,134.683274 440.978648,133.785456 440.978648,132.687892 L440.978648,115.468692 C440.978648,114.366673 440.084613,113.47331 438.980403,113.47331 L424.948423,113.47331 C423.844823,113.47331 422.950178,112.570657 422.950178,111.480053 L422.950178,7.29574754 Z" id="Combined-Shape"></path>
                    <path d="M306.646418,113.493431 C307.752105,113.493431 308.648443,112.595613 308.648443,111.48422 L308.648443,29.0728975 C308.648443,27.9632408 307.754921,27.0636633 306.646418,27.0636347 L277.244773,27.062878 C276.139086,27.0628495 275.242749,27.9606535 275.242749,29.0720576 L275.242749,111.4842 C275.242749,112.593868 276.13627,113.493431 277.244773,113.493431 L306.646418,113.493431 Z M249.906536,27.0419567 C249.818547,26.584765 248.306592,18.0100923 256.7427,8.72686355 C265.4134,-0.814513582 275.199288,0.0184021369 275.199288,0.0184021369 L308.604982,0.0184021369 C308.800525,0.0211881116 318.47755,-0.700728573 327.06157,8.74526569 C335.395052,17.9155628 334.021038,26.3944385 333.901557,27.0400829 L334.05694,113.491712 C334.207609,115.571547 334.453388,123.16163 327.06157,131.295706 C318.390871,140.837083 308.604982,140.004167 308.604982,140.004167 L275.199288,140.004167 C275.177491,140.00601 265.403742,140.826456 256.7427,131.295706 C249.346536,123.156848 249.596954,115.562623 249.830382,113.505877 L249.906536,27.0419567 Z M275.242749,134.703396 C274.598209,134.71291 266.940451,134.697137 260.723044,128.384292 C254.343334,121.906651 255.10671,113.788777 255.135967,113.50129 L255.093282,27.0628264 C255.093189,27.0628264 254.185853,18.5591635 260.66741,11.7984873 C267.148967,5.03781115 275.199244,5.32261292 275.199244,5.32261292 L308.648443,5.32261292 C308.713737,5.32214216 316.742396,5.06689974 323.211652,11.800207 C329.707203,18.5608831 328.797909,27.0645461 328.797909,27.0645461 L328.797909,113.493431 C328.797909,113.493431 329.707203,121.789032 323.211652,128.384292 C316.73883,134.956472 308.704887,134.703579 308.648738,134.701728 L275.242749,134.703396 Z M280.501779,32.3635979 L301.299063,32.3635983 C302.405526,32.3635984 303.302491,33.2616548 303.302491,34.3581726 L303.302491,105.664397 C303.302491,106.76597 302.408676,107.658972 301.299063,107.658972 L282.505207,107.658972 C281.398745,107.658972 280.501779,106.760915 280.501779,105.664397 L280.501779,32.3635979 Z" id="Combined-Shape"></path>
                    <path d="M191.419929,0 L157.892248,0 C156.788225,0 155.378928,0.724232515 154.73503,1.63094679 L105.087034,71.5434304 C104.447373,72.4441775 103.928826,74.0714097 103.928826,75.1704327 L103.928826,95.5697808 C103.928826,96.6721718 104.823043,97.5658363 105.929241,97.5658363 L158.134816,97.5658363 C159.239615,97.5658363 160.135231,98.4700111 160.135231,99.5605523 L160.135231,106.176102 C160.135231,107.277754 159.24685,108.170819 158.138893,108.170819 L145.163598,108.170819 C144.061051,108.170819 143.16726,109.07173 143.16726,110.160986 L143.16726,137.995598 C143.16726,139.094737 144.064419,139.985765 145.172712,139.985765 L206.382448,139.985765 C207.490029,139.985765 208.3879,139.084854 208.3879,137.995598 L208.3879,110.160986 C208.3879,109.061847 207.499519,108.170819 206.391562,108.170819 L193.416267,108.170819 C192.31372,108.170819 191.419929,107.266644 191.419929,106.176102 L191.419929,99.5605523 C191.419929,98.4589011 192.30831,97.5658363 193.416267,97.5658363 L206.391562,97.5658363 C207.494109,97.5658363 208.3879,96.661286 208.3879,95.5593353 L208.3879,69.348138 C208.3879,68.2399781 207.499519,67.341637 206.391562,67.341637 L193.416267,67.341637 C192.31372,67.341637 191.419929,66.4405975 191.419929,65.3445059 L191.419929,0 Z M164.907473,92.7935943 L110.701483,92.7935943 C109.596684,92.7935943 108.701068,91.8981576 108.701068,90.7944404 L108.701068,78.3550257 C108.701068,77.2509236 109.210621,75.6294874 109.847737,74.7212582 L157.397815,6.93710477 C158.031103,6.03433257 159.447698,5.3024911 160.543068,5.3024911 L184.649103,5.3024911 C185.75289,5.3024911 186.647687,6.19800374 186.647687,7.29701055 L186.647687,71.1798578 C186.647687,72.2814004 187.536068,73.1743772 188.644025,73.1743772 L201.61932,73.1743772 C202.721867,73.1743772 203.615658,74.0683551 203.615658,75.1817777 L203.615658,90.7861938 C203.615658,91.8948505 202.727277,92.7935943 201.61932,92.7935943 L188.644025,92.7935943 C187.541478,92.7935943 186.647687,93.6821758 186.647687,94.7952423 L186.647687,111.471662 C186.647687,112.577141 187.536068,113.47331 188.644025,113.47331 L201.61932,113.47331 C202.721867,113.47331 203.615658,114.371128 203.615658,115.468692 L203.615658,132.687892 C203.615658,133.789911 202.727112,134.683274 201.620407,134.683274 L150.465002,134.683274 C149.363055,134.683274 148.469751,133.785456 148.469751,132.687892 L148.469751,115.468692 C148.469751,114.366673 149.365188,113.47331 150.468905,113.47331 L162.908319,113.47331 C164.012422,113.47331 164.907473,112.584728 164.907473,111.471662 L164.907473,92.7935943 Z M146.687863,67.341637 C145.580985,67.341637 145.197784,66.6031391 145.826148,65.7005043 L158.992767,46.7868518 C159.623733,45.8804792 160.135231,46.0433159 160.135231,47.154606 L160.135231,65.3327501 C160.135231,66.4422277 159.237704,67.341637 158.131052,67.341637 L146.687863,67.341637 Z M163.906886,73.1743772 C164.459495,73.1743772 164.907473,72.7210874 164.907473,72.1759249 L164.907473,32.2238792 C164.907473,31.1194865 164.398116,30.9516588 163.765293,31.8554505 L135.976524,71.543126 C135.345715,72.4440412 135.734373,73.1743772 136.830816,73.1743772 L163.906886,73.1743772 Z" id="Combined-Shape"></path>
                    <path d="M19.088968,34.3538163 C19.088968,33.2444858 18.1938708,32.3451957 17.0821931,32.3451957 L2.00677488,32.3451957 C0.898463719,32.3451957 0,31.4463412 0,30.3462685 L0,1.99892723 C0,0.894950205 0.889763083,0 2.00492769,0 L45.7174922,0 C46.8247832,0 47.7224199,0.888680947 47.7224199,1.99441193 L47.7224199,27.6995382 C47.7224199,28.8010215 47.7224199,30.5888027 47.7224199,31.6928493 L47.7224199,106.171919 C47.7224199,107.275881 48.6175171,108.170819 49.7291948,108.170819 L64.804613,108.170819 C65.9129242,108.170819 66.8113879,109.07173 66.8113879,110.160986 L66.8113879,137.995598 C66.8113879,139.094737 65.9174432,139.985765 64.8118558,139.985765 L1.99953213,139.985765 C0.895221028,139.985765 0,139.084854 0,137.995598 L0,110.160986 C0,109.061847 0.895097173,108.170819 2.00677488,108.170819 L17.0821931,108.170819 C18.1905043,108.170819 19.088968,107.266438 19.088968,106.162198 L19.088968,34.3538163 Z M42.9501779,7.29574754 C42.9501779,6.19490241 42.0566886,5.3024911 40.9526557,5.3024911 L7.3000133,5.3024911 C6.19681225,5.3024911 5.3024911,6.19526395 5.3024911,7.30879011 L5.3024911,25.0364056 C5.3024911,26.144454 6.19761669,27.0427046 7.30623224,27.0427046 L21.8574688,27.0427046 C22.9641045,27.0427046 23.86121,27.9405317 23.86121,29.0519358 L23.86121,111.464078 C23.86121,112.573746 22.9671753,113.47331 21.8629651,113.47331 L7.83098504,113.47331 C6.7273849,113.47331 5.83274021,114.371128 5.83274021,115.468692 L5.83274021,132.687892 C5.83274021,133.789911 6.7212867,134.683274 7.82799119,134.683274 L58.9833967,134.683274 C60.0853434,134.683274 60.9786477,133.785456 60.9786477,132.687892 L60.9786477,115.468692 C60.9786477,114.366673 60.0846131,113.47331 58.9804029,113.47331 L44.9484228,113.47331 C43.8448226,113.47331 42.9501779,112.570657 42.9501779,111.480053 L42.9501779,7.29574754 Z" id="Combined-Shape"></path>
                </g>
                <g id="IBM-Logo" transform="translate(30.000000, 27.000000)" fill="#FFFFFF">
                    <g id="M" transform="translate(221.247763, 0.000000)">
                        <path d="M106.837816,61.4092907 L78.4384871,137.791001 L78.4384871,138.259683 L78.3513572,138.025342 L78.2642274,138.259683 L78.2642274,137.791001 L50.0091903,61.7973712 L50.0091903,106.923077 L50.0091903,133.653846 L0,133.653846 L0,106.923077 L18.1851601,106.923077 L18.1851601,26.7307692 L27.5781542,26.7307692 L0,26.7307692 L0,0 L55.6920528,0 L55.6920528,0.379157973 L78.3513572,59.9215427 L101.154953,2.52430159e-12 L156.847006,0 L156.847006,26.7307692 L129.196706,26.7307692 L138.661846,26.7307692 L138.661846,106.923077 L106.837816,106.923077 L106.837816,61.4092907 Z M106.837816,106.923077 L156.847006,106.923077 L156.847006,133.653846 L106.837816,133.653846 L106.837816,106.923077 Z" id="Combined-Shape"></path>
                    </g>
                    <g id="B" transform="translate(85.175195, 0.000000)">
                        <path d="M81.277311,134.056328 L81.277311,134.173611 L61.8414323,134.173611 L0,134.173611 L0,107.338889 L42.4055536,107.338889 L42.4055536,107.338889 L20.0248448,107.338889 L20.0248448,26.8347222 L42.4055536,26.8347222 L42.4055536,26.8347222 L0,26.8347222 L0,0 L81.277311,0 L81.277311,0.114973282 C99.7417555,1.56279307 114.259408,16.5048312 114.259408,34.7241289 C114.259408,48.8411192 105.543405,60.9905321 93.0288704,66.4195289 C105.543405,71.9576094 114.259408,84.3511379 114.259408,98.7517778 C114.259408,117.337152 99.7417555,132.579417 81.277311,134.056328 L81.277311,134.056328 Z M51.8290099,81.5775556 L80.099379,81.5775556 L80.099379,106.2655 L51.8290099,106.2655 L51.8290099,81.5775556 Z M51.8290099,27.9081111 L80.099379,27.9081111 L80.099379,52.5960556 L51.8290099,52.5960556 L51.8290099,27.9081111 Z" id="Combined-Shape"></path>
                    </g>
                    <g id="I">
                        <path d="M0,0 L66.4782012,0 L66.4782012,26.8347222 L0,26.8347222 L0,0 Z M0,107.338889 L66.4782012,107.338889 L66.4782012,134.173611 L0,134.173611 L0,107.338889 Z M17.7275203,26.8347222 L48.7506809,26.8347222 L48.7506809,107.338889 L17.7275203,107.338889 L17.7275203,26.8347222 Z" id="Combined-Shape"></path>
                    </g>
                </g>
            </g>
            <g id="IBM-Logo" transform="translate(32.000000, 32.000000)" fill="#000000">
                <path d="M267,57.4331495 L241.936523,128.869278 L217,57.7961026 L217,125 L173,125 L173,100 L189,100 L189,25 L173,25 L173,-1.93694887e-14 L222,-1.93694887e-14 L241.936523,56.0417306 L262,-5.68434189e-14 L311,-1.93694887e-14 L311,25 L295,25 L295,100 L311,100 L311,125 L267,125 L267,57.4331495 Z" id="M"></path>
                <path d="M69,125 L69,100 L86,100 L86,25 L69,25 L69,0 L138,0 C153.675305,1.45594303 166,15.3763761 166,32.3499985 C166,45.5017931 158.600589,56.8205361 147.976432,61.8783459 C158.600589,67.0377811 166,78.5839492 166,92 C166,109.31467 153.675305,123.514803 138,124.890735 L69,125 Z M113,76 L137,76 L137,99 L113,99 L113,76 L113,76 Z M113,26 L137,26 L137,49 L113,49 L113,26 L113,26 Z" id="B"></path>
                <path d="M60,25 L60,0 L0,0 L0,25 L16,25 L16,100 L0,100 L0,125 L60,125 L60,100 L44,100 L44,25 L60,25 Z" id="I"></path>
            </g>
            <g id="Number" transform="translate(32.000000, 193.000000)" fill="#000000">
                <path d="M753,67.0077561 C753,63.689764 750.32356,61 746.994677,61 L720.00742,61 C718.346468,61 717,59.6548361 717,57.995807 L717,3.00419299 C717,1.34502301 718.342096,0 719.994461,0 L804.005539,0 C805.659334,0 807,1.34275388 807,2.99100514 L807,53.0089949 C807,54.6608814 807,57.3475623 807,59.0065894 L807,200.993411 C807,202.653904 808.345539,204 810.00742,204 L839.99258,204 C841.653532,204 843,205.33731 843,206.995937 L843,261.004063 C843,262.658673 841.649138,264 840.009653,264 L719.990347,264 C718.338824,264 717,262.66269 717,261.004063 L717,206.995937 C717,205.341327 718.345539,204 720.00742,204 L749.99258,204 C751.653532,204 753,202.653193 753,200.996766 L753,67.0077561 Z M798,15.9948528 C798,12.683987 795.314164,10 792.00777,10 L730.005432,10 C728.345578,10 727,11.3408334 727,12.9982167 L727,48.0017833 C727,49.6576526 728.350596,51 729.999211,51 L759.000789,51 C760.657208,51 762,52.3360182 762,54.0035901 L762,210.99641 C762,212.655247 760.656688,214 758.997642,214 L731.002358,214 C729.344202,214 728,215.342309 728,217.006501 L728,250.993499 C728,252.653944 729.352981,254 731.000359,254 L828.999641,254 C830.656694,254 832,252.657691 832,250.993499 L832,217.006501 C832,215.346056 830.656688,214 828.997642,214 L801.002358,214 C799.344202,214 798,212.656946 798,210.997861 L798,15.9948528 Z" id="Combined-Shape"></path>
                <path d="M576.084043,214.037948 C579.396602,214.037948 582.081962,211.3448 582.081962,208.043438 L582.081962,57.034079 C582.081962,53.7234028 579.395084,51.0395003 576.084043,51.039415 L525.079881,51.0381022 C521.767322,51.038017 519.081962,53.7311221 519.081962,57.032517 L519.081962,208.043379 C519.081962,211.354088 521.76884,214.037948 525.079881,214.037948 L576.084043,214.037948 Z M471.300246,50.9985895 C471.134306,50.1363689 468.282902,33.9653418 484.192609,16.4580447 C500.544733,-1.53609608 519,0.0347047012 519,0.0347047012 L582,0.0347047012 C582.368776,0.0399587876 600.618735,-1.32150825 616.807391,16.4927494 C632.523554,33.7870682 629.932293,49.7774309 629.706964,50.9950556 L630,214.034705 C630.284148,217.957078 630.747665,232.271263 616.807391,247.611365 C600.455267,265.605505 582,264.034705 582,264.034705 L519,264.034705 C518.958893,264.038179 500.526521,265.585464 484.192609,247.611365 C470.244139,232.262244 470.716402,217.940248 471.156627,214.061419 L471.300246,50.9985895 Z M519.081962,254.037948 C517.866421,254.05589 503.42461,254.026145 491.699164,242.120711 C479.66763,229.90449 481.107285,214.594943 481.162461,214.052768 L481.081962,51.0379479 C481.081785,51.0379478 479.370636,35.0008385 491.594244,22.2508385 C503.817851,9.50083847 518.999916,10.0379479 518.999916,10.0379479 L582.081962,10.0379479 C582.2051,10.03706 597.346397,9.55569682 609.546806,22.2540816 C621.796806,35.0040816 620.081962,51.041191 620.081962,51.041191 L620.081962,214.037948 C620.081962,214.037948 621.796806,229.682671 609.546806,242.120711 C597.339673,254.515227 582.18841,254.038292 582.08252,254.034803 L519.081962,254.037948 Z M529,61.0347047 L565.998412,61.0347055 C569.312998,61.0347056 572,63.7133038 572,67.0342753 L572,197.035135 C572,200.348606 569.310157,203.034705 565.998412,203.034705 L535.001588,203.034705 C531.687002,203.034705 529,200.356107 529,197.035135 L529,61.0347047 Z" id="Combined-Shape"></path>
                <path d="M361,5.99751741 C361,2.68518001 358.311393,0 354.995233,0 L300.004767,0 C296.688426,0 292.440867,2.19551385 290.526534,4.89120662 L199.473466,133.108793 C197.555124,135.810132 196,140.688856 196,143.990099 L196,178.009901 C196,181.318141 198.686585,184 202.002731,184 L295.997269,184 C299.312486,184 302,186.676536 302,190.000659 L302,197.999341 C302,201.313413 299.313022,204 295.999824,204 L276.000176,204 C272.68637,204 270,206.694637 270,210.000038 L270,257.999962 C270,261.313691 272.683419,264 275.994945,264 L387.005055,264 C390.315972,264 393,261.305363 393,257.999962 L393,210.000038 C393,206.686309 390.313022,204 386.999824,204 L367.000176,204 C363.68637,204 361,201.323464 361,197.999341 L361,190.000659 C361,186.686587 363.686978,184 367.000176,184 L386.999824,184 C390.31363,184 393,181.308201 393,178.007734 L393,132.992266 C393,129.682829 390.313022,127 386.999824,127 L367.000176,127 C363.68637,127 361,124.318122 361,121.002483 L361,5.99751741 Z M311,175 L211.002731,175 C207.687514,175 205,172.316669 205,169.004519 L205,149.995481 C205,146.684268 206.543444,141.799772 208.442965,139.091944 L295.557035,14.9080564 C297.458532,12.1974117 301.682844,10 305.002439,10 L345.997561,10 C349.312617,10 352,12.6882094 352,16.0020237 L352,131.997976 C352,135.312802 354.686978,138 358.000176,138 L377.999824,138 C381.31363,138 384,140.690753 384,144.006411 L384,168.993589 C384,172.310838 381.313022,175 377.999824,175 L358.000176,175 C354.68637,175 352,177.680628 352,181.00828 L352,207.99172 C352,211.310001 354.686978,214 358.000176,214 L377.999824,214 C381.31363,214 384,216.686624 384,219.99922 L384,248.00078 C384,251.314058 381.311488,254 377.997036,254 L286.002964,254 C282.687618,254 280,251.313376 280,248.00078 L280,219.99922 C280,216.685942 282.683331,214 285.995481,214 L305.004519,214 C308.315732,214 311,211.319372 311,207.99172 L311,175 Z M278.862362,127 C275.547257,127 274.395719,124.793723 276.28827,122.075101 L298.571563,90.0654829 C300.465036,87.3455365 302,87.8227567 302,91.138018 L302,121.002566 C302,124.314857 299.310795,127 295.997471,127 L278.862362,127 Z M311,138 L311,63.0054942 C311,59.6887514 309.453594,59.208563 307.558794,61.9147004 L257.72611,133.0853 C255.825584,135.799614 256.963248,138 260.287325,138 L311,138 Z" id="Combined-Shape"></path>
                <path d="M36,67.0077561 C36,63.689764 33.3235601,61 29.9946773,61 L3.00741988,61 C1.34646775,61 0,59.6548361 0,57.995807 L0,3.00419299 C0,1.34502301 1.34209558,0 2.99446106,0 L87.0055389,0 C88.6593341,0 90,1.34275388 90,2.99100514 L90,53.0089949 C90,54.6608814 90,57.3475623 90,59.0065894 L90,200.993411 C90,202.653904 91.3455393,204 93.0074199,204 L122.99258,204 C124.653532,204 126,205.33731 126,206.995937 L126,261.004063 C126,262.658673 124.649138,264 123.009653,264 L2.99034736,264 C1.33882411,264 0,262.66269 0,261.004063 L0,206.995937 C0,205.341327 1.34553934,204 3.00741988,204 L32.9925801,204 C34.6535323,204 36,202.653193 36,200.996766 L36,67.0077561 Z M81,15.9948528 C81,12.683987 78.3141643,10 75.0077703,10 L13.005432,10 C11.3455778,10 10,11.3408334 10,12.9982167 L10,48.0017833 C10,49.6576526 11.3505957,51 12.9992106,51 L42.0007894,51 C43.6572077,51 45,52.3360182 45,54.0035901 L45,210.99641 C45,212.655247 43.6566876,214 41.9976416,214 L14.0023584,214 C12.3442017,214 11,215.342309 11,217.006501 L11,250.993499 C11,252.653944 12.3529812,254 14.0003586,254 L111.999641,254 C113.656694,254 115,252.657691 115,250.993499 L115,217.006501 C115,215.346056 113.656688,214 111.997642,214 L84.0023584,214 C82.3442017,214 81,212.656946 81,210.997861 L81,15.9948528 Z" id="Combined-Shape"></path>
            </g>
            <text id="1956-IBM-Logo-Create" font-family="HelveticaNeue, Helvetica Neue" font-size="14" font-weight="normal" fill="#000000">
                <tspan x="375" y="142">1956 IBM Logo</tspan>
                <tspan x="375" y="158">Created by Paul Rand</tspan>
            </text>
            <text id="1959-IBM-1401-Proces" font-family="HelveticaNeue, Helvetica Neue" font-size="14" font-weight="normal" fill="#000000">
                <tspan x="1049" y="439">1959 IBM 1401 Processing Unit Badge</tspan>
                <tspan x="1049" y="455">1927 Futura by Paul Renner</tspan>
            </text>
        </g>
    </g>
</svg>