<?xml version="1.0" encoding="UTF-8" standalone="no"?>
<svg width="311px" height="130px" viewBox="0 0 311 130" version="1.1" xmlns="http://www.w3.org/2000/svg" xmlns:xlink="http://www.w3.org/1999/xlink">
    <!-- Generator: Sketch 3.6.1 (26313) - http://www.bohemiancoding.com/sketch -->
    <title>IBM-Logo</title>
    <desc>Created with Sketch.</desc>
    <defs></defs>
    <g id="Page-1" stroke="none" stroke-width="1" fill="none" fill-rule="evenodd">
        <g id="IBM-Logo" transform="translate(-93.000000, -98.000000)" fill="#000000">
            <g transform="translate(93.000000, 98.000000)">
                <g id="M" transform="translate(173.000000, 0.000000)">
                    <path d="M94,57.4331495 L69.0131836,128.869282 L69.0131836,129.307617 L68.9365234,129.088449 L68.8598633,129.307617 L68.8598633,128.869282 L44,57.7961026 L44,100 L16,100 L16,25 L24.2643158,25 L0,25 L0,0 L49,0 L49,0.354608176 L68.9365234,56.0417306 L89,-3.74739302e-14 L138,0 L138,25 L113.672208,25 L122,25 L122,100 L94,100 L94,57.4331495 Z M0,100 L44,100 L44,125 L0,125 L0,100 Z M94,100 L138,100 L138,125 L94,125 L94,100 Z" id="Combined-Shape"></path>
                </g>
                <g id="B" transform="translate(69.000000, 0.000000)">
                    <path d="M69,124.890735 L69,125 L52.5,125 L0,125 L0,100 L36,100 L36,100 L17,100 L17,25 L36,25 L36,25 L0,25 L0,0 L69,0 L69,0.107112421 C84.6753054,1.45594303 97,15.3763761 97,32.3499985 C97,45.5017931 89.6005893,56.8205361 78.9764323,61.8783459 C89.6005893,67.0377811 97,78.5839492 97,92 C97,109.31467 84.6753054,123.514803 69,124.890735 L69,124.890735 Z M44,76 L68,76 L68,99 L44,99 L44,76 Z M44,26 L68,26 L68,49 L44,49 L44,26 Z" id="Combined-Shape"></path>
                </g>
                <g id="I">
                    <path d="M0,0 L60,0 L60,25 L0,25 L0,0 Z M0,100 L60,100 L60,125 L0,125 L0,100 Z M16,25 L44,25 L44,100 L16,100 L16,25 Z" id="Combined-Shape"></path>
                </g>
            </g>
        </g>
    </g>
</svg>